REM MD5 a208f2a65034134902bc7c86a3569ded
FILE "Eidos Demo CD (USA).bin" BINARY
  TRACK 01 MODE2/2352
    INDEX 01 00:00:00
  TRACK 02 AUDIO
    INDEX 00 16:36:19
    INDEX 01 16:38:19
  TRACK 03 AUDIO
    INDEX 00 19:04:13
    INDEX 01 19:06:13
  TRACK 04 AUDIO
    INDEX 00 19:26:68
    INDEX 01 19:28:68
  TRACK 05 AUDIO
    INDEX 00 22:03:46
    INDEX 01 22:05:46
  TRACK 06 AUDIO
    INDEX 00 24:24:64
    INDEX 01 24:26:64
REM LEADOUT 24:32:60
